<mxfile host="app.diagrams.net" modified="2024-04-10T05:41:02.315Z" agent="Mozilla/5.0 (Windows NT 10.0; Win64; x64) AppleWebKit/537.36 (KHTML, like Gecko) Chrome/123.0.0.0 Safari/537.36" etag="tpTWdcVUU8X58jF6DqYl" version="24.2.3" type="device">
  <diagram name="Page-1" id="s9OpNDyYDE5kpe4QUMl1">
    <mxGraphModel dx="880" dy="595" grid="1" gridSize="10" guides="1" tooltips="1" connect="1" arrows="1" fold="1" page="1" pageScale="1" pageWidth="827" pageHeight="1169" math="0" shadow="0">
      <root>
        <mxCell id="0" />
        <mxCell id="1" parent="0" />
        <mxCell id="cRXKy10s5mU437wThipX-9" value="" style="edgeStyle=orthogonalEdgeStyle;rounded=0;orthogonalLoop=1;jettySize=auto;html=1;" edge="1" parent="1" source="cRXKy10s5mU437wThipX-3" target="cRXKy10s5mU437wThipX-4">
          <mxGeometry relative="1" as="geometry" />
        </mxCell>
        <mxCell id="cRXKy10s5mU437wThipX-1" value="START" style="rounded=1;whiteSpace=wrap;html=1;" vertex="1" parent="1">
          <mxGeometry x="310" y="10" width="120" height="60" as="geometry" />
        </mxCell>
        <mxCell id="cRXKy10s5mU437wThipX-2" value="END&lt;div&gt;&lt;br&gt;&lt;/div&gt;" style="rounded=1;whiteSpace=wrap;html=1;" vertex="1" parent="1">
          <mxGeometry x="300" y="690" width="120" height="60" as="geometry" />
        </mxCell>
        <mxCell id="cRXKy10s5mU437wThipX-14" value="" style="edgeStyle=orthogonalEdgeStyle;rounded=0;orthogonalLoop=1;jettySize=auto;html=1;" edge="1" parent="1" source="cRXKy10s5mU437wThipX-4" target="cRXKy10s5mU437wThipX-5">
          <mxGeometry relative="1" as="geometry" />
        </mxCell>
        <mxCell id="cRXKy10s5mU437wThipX-4" value="AREA&amp;lt;-3.14*RADIUS*RADIUS" style="rounded=0;whiteSpace=wrap;html=1;" vertex="1" parent="1">
          <mxGeometry x="277" y="200" width="186" height="60" as="geometry" />
        </mxCell>
        <mxCell id="cRXKy10s5mU437wThipX-15" value="" style="edgeStyle=orthogonalEdgeStyle;rounded=0;orthogonalLoop=1;jettySize=auto;html=1;" edge="1" parent="1" source="cRXKy10s5mU437wThipX-5" target="cRXKy10s5mU437wThipX-6">
          <mxGeometry relative="1" as="geometry" />
        </mxCell>
        <mxCell id="cRXKy10s5mU437wThipX-5" value="CIRCUMFERENCE&amp;lt;-2*3.14*RADIUS" style="rounded=0;whiteSpace=wrap;html=1;" vertex="1" parent="1">
          <mxGeometry x="255" y="320" width="230" height="60" as="geometry" />
        </mxCell>
        <mxCell id="cRXKy10s5mU437wThipX-12" value="" style="edgeStyle=orthogonalEdgeStyle;rounded=0;orthogonalLoop=1;jettySize=auto;html=1;" edge="1" parent="1" source="cRXKy10s5mU437wThipX-6" target="cRXKy10s5mU437wThipX-7">
          <mxGeometry relative="1" as="geometry" />
        </mxCell>
        <mxCell id="cRXKy10s5mU437wThipX-6" value="PRINT &quot;AREA IS &quot;AREA&lt;div&gt;&lt;br&gt;&lt;/div&gt;" style="shape=parallelogram;perimeter=parallelogramPerimeter;whiteSpace=wrap;html=1;fixedSize=1;" vertex="1" parent="1">
          <mxGeometry x="310" y="430" width="120" height="60" as="geometry" />
        </mxCell>
        <mxCell id="cRXKy10s5mU437wThipX-13" value="" style="edgeStyle=orthogonalEdgeStyle;rounded=0;orthogonalLoop=1;jettySize=auto;html=1;" edge="1" parent="1" source="cRXKy10s5mU437wThipX-7" target="cRXKy10s5mU437wThipX-2">
          <mxGeometry relative="1" as="geometry" />
        </mxCell>
        <mxCell id="cRXKy10s5mU437wThipX-7" value="PRINT &quot;CIRCUMFERENCE IS &quot;CIRCUMFERENCE&lt;div&gt;&lt;br&gt;&lt;div&gt;&lt;br&gt;&lt;/div&gt;&lt;/div&gt;" style="shape=parallelogram;perimeter=parallelogramPerimeter;whiteSpace=wrap;html=1;fixedSize=1;" vertex="1" parent="1">
          <mxGeometry x="265" y="555" width="210" height="60" as="geometry" />
        </mxCell>
        <mxCell id="cRXKy10s5mU437wThipX-10" value="" style="edgeStyle=orthogonalEdgeStyle;rounded=0;orthogonalLoop=1;jettySize=auto;html=1;" edge="1" parent="1" source="cRXKy10s5mU437wThipX-1" target="cRXKy10s5mU437wThipX-3">
          <mxGeometry relative="1" as="geometry">
            <mxPoint x="370" y="70" as="sourcePoint" />
            <mxPoint x="387" y="180" as="targetPoint" />
          </mxGeometry>
        </mxCell>
        <mxCell id="cRXKy10s5mU437wThipX-3" value="INPUT RADIUS" style="shape=parallelogram;perimeter=parallelogramPerimeter;whiteSpace=wrap;html=1;fixedSize=1;" vertex="1" parent="1">
          <mxGeometry x="310" y="100" width="120" height="60" as="geometry" />
        </mxCell>
      </root>
    </mxGraphModel>
  </diagram>
</mxfile>
